<svg data-v-423bf9ae="" xmlns="http://www.w3.org/2000/svg" viewBox="0 0 1650.2542730982539 193" class="fontAboveSlogan"><!----><!----><!----><g data-v-423bf9ae="" id="12922731-2ec6-44e9-a654-bd4847095a2d" fill="#ffffff" transform="matrix(7.609384687171853,0,0,7.609384687171853,675.5224578472821,-20.0436222293918)"><path d="M0.10 14.60L-1.04 14.11L-1.04 14.11Q-0.68 13.50-0.29 12.73L-0.29 12.73L-0.29 12.73Q0.11 11.95 0.52 11.06L0.52 11.06L0.52 11.06Q0.93 10.17 1.34 9.17L1.34 9.17L1.34 9.17Q1.75 8.18 2.13 7.14L2.13 7.14L2.13 7.14Q2.52 6.10 2.86 5.02L2.86 5.02L2.86 5.02Q3.20 3.94 3.47 2.87L3.47 2.87L3.47 2.87Q3.67 3.06 3.89 3.25L3.89 3.25L3.89 3.25Q4.10 3.44 4.31 3.62L4.31 3.62L4.31 3.62Q4.51 3.80 4.69 3.98L4.69 3.98L4.69 3.98Q4.87 4.15 5.00 4.30L5.00 4.30L5.00 4.30Q4.74 5.04 4.41 5.85L4.41 5.85L4.41 5.85Q4.07 6.67 3.70 7.52L3.70 7.52L3.70 7.52Q3.32 8.36 2.92 9.19L2.92 9.19L2.92 9.19Q2.52 10.03 2.14 10.79L2.14 10.79L2.14 10.79Q1.75 11.56 1.40 12.23L1.40 12.23L1.40 12.23Q1.05 12.89 0.78 13.40L0.78 13.40L0.78 13.40Q1.19 13.40 1.75 13.40L1.75 13.40L1.75 13.40Q2.31 13.41 2.97 13.41L2.97 13.41L2.97 13.41Q3.62 13.42 4.35 13.43L4.35 13.43L4.35 13.43Q5.07 13.45 5.81 13.47L5.81 13.47L5.81 13.47Q5.70 13.62 5.56 13.79L5.56 13.79L5.56 13.79Q5.41 13.97 5.25 14.16L5.25 14.16L5.25 14.16Q5.09 14.35 4.93 14.53L4.93 14.53L4.93 14.53Q4.76 14.71 4.59 14.87L4.59 14.87L4.59 14.87Q3.98 14.83 3.41 14.78L3.41 14.78L3.41 14.78Q2.84 14.72 2.30 14.65L2.30 14.65L2.30 14.65Q1.77 14.58 1.26 14.51L1.26 14.51L1.26 14.51Q0.75 14.43 0.25 14.36L0.25 14.36L0.25 14.36Q0.18 14.49 0.13 14.55L0.13 14.55L0.13 14.55Q0.09 14.62 0.10 14.60L0.10 14.60ZM7.60 12.98L7.60 12.98L7.60 12.98Q7.60 13.19 7.75 13.19L7.75 13.19L7.75 13.19Q7.91 13.19 8.17 12.94L8.17 12.94L8.17 12.94Q8.43 12.69 8.71 12.30L8.71 12.30L8.71 12.30Q8.70 12.23 8.69 12.17L8.69 12.17L8.69 12.17Q8.69 12.11 8.69 12.07L8.69 12.07L8.69 12.07Q8.69 11.93 8.72 11.74L8.72 11.74L8.72 11.74Q8.75 11.55 8.87 11.31L8.87 11.31L8.87 11.31Q8.96 11.13 9.07 10.95L9.07 10.95L9.07 10.95Q9.17 10.79 9.30 10.61L9.30 10.61L9.30 10.61Q9.44 10.43 9.60 10.27L9.60 10.27L9.65 10.23L9.65 10.23Q9.71 10.32 9.83 10.46L9.83 10.46L9.83 10.46Q9.94 10.60 10.05 10.74L10.05 10.74L10.05 10.74Q10.17 10.89 10.25 11.01L10.25 11.01L10.25 11.01Q10.34 11.14 10.36 11.18L10.36 11.18L10.36 11.18Q10.36 11.48 10.25 11.77L10.25 11.77L10.25 11.77Q10.14 12.07 9.97 12.35L9.97 12.35L9.97 12.35Q10.38 12.33 10.73 12.14L10.73 12.14L10.73 12.14Q11.08 11.96 11.46 11.55L11.46 11.55L11.46 11.55Q11.53 11.61 11.62 11.72L11.62 11.72L11.62 11.72Q11.72 11.83 11.79 11.90L11.79 11.90L11.79 11.90Q11.50 12.20 11.22 12.40L11.22 12.40L11.22 12.40Q10.94 12.60 10.67 12.71L10.67 12.71L10.67 12.71Q10.39 12.83 10.10 12.88L10.10 12.88L10.10 12.88Q9.82 12.93 9.52 12.93L9.52 12.93L9.52 12.93Q9.28 13.18 9.02 13.38L9.02 13.38L9.02 13.38Q8.75 13.59 8.47 13.74L8.47 13.74L8.47 13.74Q8.20 13.89 7.92 13.97L7.92 13.97L7.92 13.97Q7.65 14.05 7.40 14.05L7.40 14.05L7.40 14.05Q7.20 14.05 6.98 13.93L6.98 13.93L6.98 13.93Q6.76 13.81 6.58 13.63L6.58 13.63L6.58 13.63Q6.41 13.45 6.29 13.24L6.29 13.24L6.29 13.24Q6.17 13.04 6.17 12.88L6.17 12.88L6.17 12.88Q6.17 12.36 6.31 11.85L6.31 11.85L6.31 11.85Q6.45 11.33 6.75 10.89L6.75 10.89L6.75 10.89Q7.05 10.44 7.51 10.10L7.51 10.10L7.51 10.10Q7.97 9.75 8.61 9.58L8.61 9.58L8.61 9.58Q8.63 9.56 8.68 9.56L8.68 9.56L8.68 9.56Q8.73 9.55 8.76 9.55L8.76 9.55L8.76 9.55Q8.86 9.55 8.97 9.62L8.97 9.62L8.97 9.62Q9.07 9.69 9.16 9.78L9.16 9.78L9.16 9.78Q9.26 9.87 9.32 9.96L9.32 9.96L9.32 9.96Q9.38 10.04 9.38 10.07L9.38 10.07L9.38 10.07Q9.37 10.10 9.28 10.15L9.28 10.15L9.28 10.15Q9.19 10.21 9.04 10.33L9.04 10.33L9.04 10.33Q8.89 10.45 8.68 10.68L8.68 10.68L8.68 10.68Q8.48 10.91 8.23 11.29L8.23 11.29L8.23 11.29Q7.86 11.84 7.73 12.29L7.73 12.29L7.73 12.29Q7.60 12.74 7.60 12.98ZM14.56 12.97L14.56 12.97L14.56 12.97Q14.27 12.97 14.06 12.87L14.06 12.87L14.06 12.87Q13.84 13.11 13.59 13.32L13.59 13.32L13.59 13.32Q13.34 13.53 13.10 13.69L13.10 13.69L13.10 13.69Q12.87 13.85 12.63 13.95L12.63 13.95L12.63 13.95Q12.40 14.04 12.20 14.05L12.20 14.05L12.20 14.05Q12.09 14.05 11.90 13.97L11.90 13.97L11.90 13.97Q11.70 13.88 11.52 13.74L11.52 13.74L11.52 13.74Q11.33 13.60 11.19 13.42L11.19 13.42L11.19 13.42Q11.05 13.23 11.05 13.05L11.05 13.05L11.05 13.05Q11.05 12.60 11.14 12.14L11.14 12.14L11.14 12.14Q11.22 11.69 11.36 11.25L11.36 11.25L11.36 11.25Q11.49 10.80 11.65 10.37L11.65 10.37L11.65 10.37Q11.81 9.95 11.96 9.55L11.96 9.55L11.96 9.55Q12.30 9.71 12.64 9.90L12.64 9.90L12.64 9.90Q12.97 10.09 13.25 10.35L13.25 10.35L13.25 10.35Q13.15 10.55 13.05 10.82L13.05 10.82L13.05 10.82Q12.95 11.09 12.85 11.38L12.85 11.38L12.85 11.38Q12.76 11.66 12.67 11.95L12.67 11.95L12.67 11.95Q12.59 12.24 12.53 12.48L12.53 12.48L12.53 12.48Q12.47 12.73 12.43 12.92L12.43 12.92L12.43 12.92Q12.40 13.10 12.40 13.19L12.40 13.19L12.40 13.19Q12.40 13.24 12.42 13.29L12.42 13.29L12.42 13.29Q12.45 13.33 12.50 13.33L12.50 13.33L12.50 13.33Q12.61 13.33 12.75 13.26L12.75 13.26L12.75 13.26Q12.88 13.19 13.03 13.08L13.03 13.08L13.03 13.08Q13.18 12.97 13.33 12.81L13.33 12.81L13.33 12.81Q13.49 12.66 13.63 12.49L13.63 12.49L13.63 12.49Q13.51 12.28 13.51 12.07L13.51 12.07L13.51 12.07Q13.51 11.92 13.55 11.72L13.55 11.72L13.55 11.72Q13.60 11.52 13.67 11.30L13.67 11.30L13.67 11.30Q13.75 11.08 13.84 10.86L13.84 10.86L13.84 10.86Q13.93 10.64 14.03 10.45L14.03 10.45L14.03 10.45Q14.13 10.25 14.22 10.11L14.22 10.11L14.22 10.11Q14.31 9.97 14.39 9.90L14.39 9.90L14.39 9.90Q14.55 9.96 14.72 10.07L14.72 10.07L14.72 10.07Q14.89 10.17 15.03 10.29L15.03 10.29L15.03 10.29Q15.18 10.41 15.27 10.52L15.27 10.52L15.27 10.52Q15.36 10.64 15.37 10.71L15.37 10.71L15.37 10.71Q15.37 10.86 15.31 11.05L15.31 11.05L15.31 11.05Q15.24 11.24 15.12 11.46L15.12 11.46L15.12 11.46Q15.00 11.68 14.83 11.93L14.83 11.93L14.83 11.93Q14.66 12.17 14.46 12.41L14.46 12.41L14.46 12.41Q14.51 12.43 14.55 12.44L14.55 12.44L14.55 12.44Q14.59 12.45 14.66 12.45L14.66 12.45L14.66 12.45Q14.93 12.45 15.14 12.39L15.14 12.39L15.14 12.39Q15.35 12.34 15.54 12.23L15.54 12.23L15.54 12.23Q15.74 12.13 15.92 11.97L15.92 11.97L15.92 11.97Q16.11 11.81 16.32 11.61L16.32 11.61L16.32 11.61Q16.39 11.67 16.48 11.77L16.48 11.77L16.48 11.77Q16.58 11.87 16.65 11.94L16.65 11.94L16.65 11.94Q16.36 12.23 16.10 12.42L16.10 12.42L16.10 12.42Q15.85 12.62 15.60 12.74L15.60 12.74L15.60 12.74Q15.35 12.86 15.09 12.91L15.09 12.91L15.09 12.91Q14.84 12.97 14.56 12.97ZM20.65 11.66L20.99 12.00L20.99 12.00Q20.36 12.61 19.80 13.03L19.80 13.03L19.80 13.03Q19.24 13.45 18.74 13.70L18.74 13.70L18.74 13.70Q18.23 13.95 17.77 14.06L17.77 14.06L17.77 14.06Q17.31 14.17 16.87 14.17L16.87 14.17L16.87 14.17Q16.69 14.17 16.46 14.03L16.46 14.03L16.46 14.03Q16.24 13.90 16.04 13.70L16.04 13.70L16.04 13.70Q15.85 13.51 15.72 13.30L15.72 13.30L15.72 13.30Q15.59 13.08 15.59 12.93L15.59 12.93L15.59 12.93Q15.59 12.37 15.74 11.90L15.74 11.90L15.74 11.90Q15.89 11.44 16.15 11.06L16.15 11.06L16.15 11.06Q16.40 10.68 16.72 10.40L16.72 10.40L16.72 10.40Q17.05 10.11 17.40 9.92L17.40 9.92L17.40 9.92Q17.75 9.73 18.10 9.63L18.10 9.63L18.10 9.63Q18.45 9.54 18.74 9.54L18.74 9.54L18.74 9.54Q18.96 9.54 19.16 9.66L19.16 9.66L19.16 9.66Q19.37 9.78 19.54 9.96L19.54 9.96L19.54 9.96Q19.71 10.14 19.82 10.33L19.82 10.33L19.82 10.33Q19.93 10.53 19.93 10.67L19.93 10.67L19.93 10.67Q19.93 10.90 19.73 11.15L19.73 11.15L19.73 11.15Q19.54 11.39 19.18 11.64L19.18 11.64L19.18 11.64Q18.83 11.89 18.33 12.16L18.33 12.16L18.33 12.16Q17.83 12.42 17.23 12.69L17.23 12.69L17.23 12.69Q17.21 12.85 17.21 13.01L17.21 13.01L17.21 13.01Q17.21 13.22 17.30 13.30L17.30 13.30L17.30 13.30Q17.39 13.37 17.64 13.37L17.64 13.37L17.64 13.37Q18.09 13.37 18.49 13.22L18.49 13.22L18.49 13.22Q18.89 13.07 19.26 12.83L19.26 12.83L19.26 12.83Q19.63 12.59 19.97 12.28L19.97 12.28L19.97 12.28Q20.32 11.98 20.65 11.66L20.65 11.66ZM18.58 10.29L18.58 10.29L18.58 10.29Q18.44 10.29 18.28 10.44L18.28 10.44L18.28 10.44Q18.12 10.58 17.95 10.82L17.95 10.82L17.95 10.82Q17.79 11.06 17.64 11.37L17.64 11.37L17.64 11.37Q17.49 11.68 17.38 12.02L17.38 12.02L17.38 12.02Q17.63 11.85 17.87 11.67L17.87 11.67L17.87 11.67Q18.12 11.48 18.31 11.28L18.31 11.28L18.31 11.28Q18.50 11.08 18.61 10.87L18.61 10.87L18.61 10.87Q18.73 10.66 18.73 10.45L18.73 10.45L18.73 10.45Q18.73 10.38 18.69 10.34L18.69 10.34L18.69 10.34Q18.66 10.29 18.58 10.29ZM30.47 4.90L30.47 4.90L30.47 4.90Q30.56 5.02 30.62 5.14L30.62 5.14L30.62 5.14Q30.68 5.26 30.71 5.42L30.71 5.42L30.71 5.42Q30.75 5.58 30.77 5.78L30.77 5.78L30.77 5.78Q30.78 5.98 30.78 6.25L30.78 6.25L30.78 6.25Q30.75 7.13 30.55 8.06L30.55 8.06L30.55 8.06Q30.34 8.99 29.97 9.88L29.97 9.88L29.97 9.88Q29.59 10.77 29.05 11.58L29.05 11.58L29.05 11.58Q28.51 12.40 27.82 13.07L27.82 13.07L27.82 13.07Q27.12 13.73 26.27 14.21L26.27 14.21L26.27 14.21Q25.42 14.68 24.42 14.90L24.42 14.90L24.42 14.90Q24.10 14.69 23.86 14.50L23.86 14.50L23.86 14.50Q23.62 14.31 23.45 14.15L23.45 14.15L23.45 14.15Q23.28 13.99 23.17 13.87L23.17 13.87L23.17 13.87Q23.06 13.75 23.02 13.69L23.02 13.69L23.02 13.69Q22.65 14.22 22.30 14.53L22.30 14.53L22.30 14.53Q21.94 14.84 21.60 14.84L21.60 14.84L21.60 14.84Q21.44 14.84 21.27 14.75L21.27 14.75L21.27 14.75Q21.11 14.66 20.96 14.51L20.96 14.51L20.96 14.51Q20.82 14.37 20.69 14.19L20.69 14.19L20.69 14.19Q20.56 14.01 20.46 13.85L20.46 13.85L20.46 13.85Q20.37 13.69 20.32 13.55L20.32 13.55L20.32 13.55Q20.26 13.41 20.26 13.34L20.26 13.34L20.26 13.34Q20.26 12.92 20.40 12.39L20.40 12.39L20.40 12.39Q20.53 11.87 20.77 11.28L20.77 11.28L20.77 11.28Q21.01 10.69 21.34 10.06L21.34 10.06L21.34 10.06Q21.68 9.43 22.09 8.80L22.09 8.80L22.09 8.80Q22.50 8.17 22.97 7.55L22.97 7.55L22.97 7.55Q23.43 6.93 23.94 6.36L23.94 6.36L23.94 6.36Q24.13 5.42 24.25 4.50L24.25 4.50L24.25 4.50Q24.37 3.58 24.40 2.73L24.40 2.73L24.40 2.73Q24.79 2.97 25.11 3.21L25.11 3.21L25.11 3.21Q25.43 3.45 25.66 3.65L25.66 3.65L25.66 3.65Q25.92 3.88 26.13 4.09L26.13 4.09L26.11 4.40L26.11 4.40Q26.76 3.93 27.38 3.67L27.38 3.67L27.38 3.67Q28.01 3.40 28.59 3.40L28.59 3.40L28.59 3.40Q28.87 3.40 29.13 3.56L29.13 3.56L29.13 3.56Q29.39 3.71 29.64 3.94L29.64 3.94L29.64 3.94Q29.88 4.16 30.09 4.43L30.09 4.43L30.09 4.43Q30.30 4.69 30.47 4.90ZM25.81 6.23L25.81 6.23L25.81 6.23Q25.68 6.84 25.50 7.50L25.50 7.50L25.50 7.50Q25.33 8.17 25.12 8.84L25.12 8.84L25.12 8.84Q24.90 9.52 24.66 10.19L24.66 10.19L24.66 10.19Q24.42 10.86 24.17 11.47L24.17 11.47L24.17 11.47Q23.91 12.09 23.63 12.63L23.63 12.63L23.63 12.63Q23.34 13.18 23.06 13.61L23.06 13.61L23.06 13.61Q23.92 13.48 24.65 13.15L24.65 13.15L24.65 13.15Q25.39 12.82 26.00 12.34L26.00 12.34L26.00 12.34Q26.62 11.85 27.12 11.26L27.12 11.26L27.12 11.26Q27.62 10.66 28.01 10.00L28.01 10.00L28.01 10.00Q28.40 9.34 28.69 8.66L28.69 8.66L28.69 8.66Q28.98 7.97 29.17 7.32L29.17 7.32L29.17 7.32Q29.35 6.67 29.45 6.07L29.45 6.07L29.45 6.07Q29.54 5.48 29.54 5.00L29.54 5.00L29.54 5.00Q29.54 4.85 29.50 4.70L29.50 4.70L29.50 4.70Q29.46 4.55 29.39 4.43L29.39 4.43L29.39 4.43Q29.31 4.31 29.20 4.23L29.20 4.23L29.20 4.23Q29.09 4.16 28.94 4.16L28.94 4.16L28.94 4.16Q28.65 4.16 28.29 4.31L28.29 4.31L28.29 4.31Q27.94 4.46 27.54 4.74L27.54 4.74L27.54 4.74Q27.13 5.02 26.69 5.40L26.69 5.40L26.69 5.40Q26.26 5.78 25.81 6.23ZM21.31 13.56L21.31 13.56L21.31 13.56Q21.44 13.62 21.65 13.31L21.65 13.31L21.65 13.31Q21.86 13.00 22.12 12.43L22.12 12.43L22.12 12.43Q22.38 11.85 22.66 11.05L22.66 11.05L22.66 11.05Q22.95 10.25 23.22 9.31L23.22 9.31L23.22 9.31Q22.78 9.92 22.42 10.50L22.42 10.50L22.42 10.50Q22.05 11.08 21.78 11.60L21.78 11.60L21.78 11.60Q21.51 12.11 21.36 12.54L21.36 12.54L21.36 12.54Q21.21 12.97 21.21 13.26L21.21 13.26L21.21 13.26Q21.21 13.49 21.31 13.56ZM31.15 12.98L31.15 12.98L31.15 12.98Q31.15 13.19 31.30 13.19L31.30 13.19L31.30 13.19Q31.46 13.19 31.72 12.94L31.72 12.94L31.72 12.94Q31.98 12.69 32.26 12.30L32.26 12.30L32.26 12.30Q32.25 12.23 32.24 12.17L32.24 12.17L32.24 12.17Q32.24 12.11 32.24 12.07L32.24 12.07L32.24 12.07Q32.24 11.93 32.27 11.74L32.27 11.74L32.27 11.74Q32.30 11.55 32.42 11.31L32.42 11.31L32.42 11.31Q32.50 11.13 32.62 10.95L32.62 10.95L32.62 10.95Q32.72 10.79 32.85 10.61L32.85 10.61L32.85 10.61Q32.99 10.43 33.15 10.27L33.15 10.27L33.20 10.23L33.20 10.23Q33.26 10.32 33.38 10.46L33.38 10.46L33.38 10.46Q33.49 10.60 33.60 10.74L33.60 10.74L33.60 10.74Q33.71 10.89 33.80 11.01L33.80 11.01L33.80 11.01Q33.89 11.14 33.91 11.18L33.91 11.18L33.91 11.18Q33.91 11.48 33.80 11.77L33.80 11.77L33.80 11.77Q33.69 12.07 33.52 12.35L33.52 12.35L33.52 12.35Q33.93 12.33 34.28 12.14L34.28 12.14L34.28 12.14Q34.63 11.96 35.01 11.55L35.01 11.55L35.01 11.55Q35.08 11.61 35.17 11.72L35.17 11.72L35.17 11.72Q35.27 11.83 35.33 11.90L35.33 11.90L35.33 11.90Q35.05 12.20 34.77 12.40L34.77 12.40L34.77 12.40Q34.49 12.60 34.22 12.71L34.22 12.71L34.22 12.71Q33.94 12.83 33.65 12.88L33.65 12.88L33.65 12.88Q33.37 12.93 33.07 12.93L33.07 12.93L33.07 12.93Q32.83 13.18 32.57 13.38L32.57 13.38L32.57 13.38Q32.30 13.59 32.02 13.74L32.02 13.74L32.02 13.74Q31.75 13.89 31.47 13.97L31.47 13.97L31.47 13.97Q31.20 14.05 30.95 14.05L30.95 14.05L30.95 14.05Q30.75 14.05 30.53 13.93L30.53 13.93L30.53 13.93Q30.31 13.81 30.13 13.63L30.13 13.63L30.13 13.63Q29.96 13.45 29.84 13.24L29.84 13.24L29.84 13.24Q29.72 13.04 29.72 12.88L29.72 12.88L29.72 12.88Q29.72 12.36 29.86 11.85L29.86 11.85L29.86 11.85Q30.00 11.33 30.30 10.89L30.30 10.89L30.30 10.89Q30.60 10.44 31.06 10.10L31.06 10.10L31.06 10.10Q31.52 9.75 32.16 9.58L32.16 9.58L32.16 9.58Q32.18 9.56 32.23 9.56L32.23 9.56L32.23 9.56Q32.28 9.55 32.31 9.55L32.31 9.55L32.31 9.55Q32.41 9.55 32.52 9.62L32.52 9.62L32.52 9.62Q32.62 9.69 32.71 9.78L32.71 9.78L32.71 9.78Q32.81 9.87 32.87 9.96L32.87 9.96L32.87 9.96Q32.93 10.04 32.93 10.07L32.93 10.07L32.93 10.07Q32.92 10.10 32.83 10.15L32.83 10.15L32.83 10.15Q32.74 10.21 32.59 10.33L32.59 10.33L32.59 10.33Q32.44 10.45 32.23 10.68L32.23 10.68L32.23 10.68Q32.03 10.91 31.78 11.29L31.78 11.29L31.78 11.29Q31.41 11.84 31.28 12.29L31.28 12.29L31.28 12.29Q31.15 12.74 31.15 12.98ZM40.28 11.63L40.58 12.00L40.58 12.00Q40.00 12.60 39.41 13.10L39.41 13.10L39.41 13.10Q38.81 13.60 38.23 14.04L38.23 14.04L38.23 14.04Q38.12 14.36 38.00 14.68L38.00 14.68L38.00 14.68Q37.87 15.00 37.73 15.33L37.73 15.33L37.73 15.33Q37.54 15.78 37.27 16.20L37.27 16.20L37.27 16.20Q37.01 16.61 36.72 16.96L36.72 16.96L36.72 16.96Q36.42 17.32 36.11 17.60L36.11 17.60L36.11 17.60Q35.81 17.88 35.52 18.08L35.52 18.08L35.52 18.08Q35.24 18.28 35.00 18.39L35.00 18.39L35.00 18.39Q34.75 18.50 34.58 18.50L34.58 18.50L34.58 18.50Q34.47 18.50 34.31 18.40L34.31 18.40L34.31 18.40Q34.15 18.29 34.01 18.14L34.01 18.14L34.01 18.14Q33.87 17.99 33.77 17.80L33.77 17.80L33.77 17.80Q33.67 17.62 33.67 17.46L33.67 17.46L33.67 17.46Q33.67 17.10 33.92 16.76L33.92 16.76L33.92 16.76Q34.16 16.42 34.59 16.06L34.59 16.06L34.59 16.06Q35.01 15.70 35.59 15.30L35.59 15.30L35.59 15.30Q36.16 14.90 36.83 14.43L36.83 14.43L36.83 14.43Q36.98 14.04 37.17 13.50L37.17 13.50L37.17 13.50Q37.36 12.97 37.62 12.18L37.62 12.18L37.62 12.18Q37.37 12.52 37.04 12.85L37.04 12.85L37.04 12.85Q36.72 13.19 36.37 13.45L36.37 13.45L36.37 13.45Q36.02 13.71 35.67 13.87L35.67 13.87L35.67 13.87Q35.33 14.03 35.04 14.03L35.04 14.03L35.04 14.03Q34.97 14.03 34.85 13.96L34.85 13.96L34.85 13.96Q34.73 13.88 34.61 13.77L34.61 13.77L34.61 13.77Q34.49 13.65 34.40 13.49L34.40 13.49L34.40 13.49Q34.32 13.34 34.32 13.16L34.32 13.16L34.32 13.16Q34.32 12.93 34.43 12.62L34.43 12.62L34.43 12.62Q34.54 12.30 34.74 11.94L34.74 11.94L34.74 11.94Q34.95 11.59 35.25 11.22L35.25 11.22L35.25 11.22Q35.55 10.85 35.92 10.52L35.92 10.52L35.92 10.52Q36.29 10.20 36.73 9.94L36.73 9.94L36.73 9.94Q37.17 9.69 37.67 9.55L37.67 9.55L37.67 9.55Q37.75 9.55 37.88 9.61L37.88 9.61L37.88 9.61Q38.02 9.67 38.15 9.74L38.15 9.74L38.15 9.74Q38.29 9.81 38.39 9.88L38.39 9.88L38.39 9.88Q38.49 9.95 38.49 9.97L38.49 9.97L38.49 9.97Q38.49 9.98 38.47 10.00L38.47 10.00L38.47 10.00Q38.45 10.01 38.45 10.01L38.45 10.01L38.45 10.01Q38.29 10.10 38.04 10.27L38.04 10.27L38.04 10.27Q37.80 10.45 37.52 10.66L37.52 10.66L37.52 10.66Q37.25 10.88 36.98 11.12L36.98 11.12L36.98 11.12Q36.70 11.37 36.48 11.61L36.48 11.61L36.48 11.61Q36.26 11.85 36.12 12.08L36.12 12.08L36.12 12.08Q35.98 12.30 35.98 12.48L35.98 12.48L35.98 12.48Q35.98 12.54 36.02 12.58L36.02 12.58L36.02 12.58Q36.05 12.63 36.11 12.63L36.11 12.63L36.11 12.63Q36.28 12.63 36.49 12.51L36.49 12.51L36.49 12.51Q36.71 12.39 36.93 12.20L36.93 12.20L36.93 12.20Q37.16 12.00 37.39 11.77L37.39 11.77L37.39 11.77Q37.61 11.53 37.81 11.30L37.81 11.30L37.81 11.30Q38.01 11.07 38.17 10.88L38.17 10.88L38.17 10.88Q38.33 10.68 38.42 10.55L38.42 10.55L38.42 10.55Q38.43 10.54 38.44 10.53L38.44 10.53L38.44 10.53Q38.45 10.51 38.47 10.50L38.47 10.50L38.47 10.50Q38.53 10.51 38.62 10.64L38.62 10.64L38.62 10.64Q38.71 10.76 38.80 10.92L38.80 10.92L38.80 10.92Q38.89 11.08 38.95 11.24L38.95 11.24L38.95 11.24Q39.02 11.40 39.02 11.46L39.02 11.46L39.02 11.48L39.02 11.48Q39.02 11.48 39.01 11.53L39.01 11.53L39.01 11.53Q38.93 11.76 38.81 12.20L38.81 12.20L38.81 12.20Q38.70 12.63 38.52 13.19L38.52 13.19L38.52 13.19Q38.96 12.84 39.40 12.46L39.40 12.46L39.40 12.46Q39.84 12.07 40.28 11.63L40.28 11.63ZM34.48 17.58L34.48 17.58L34.48 17.58Q34.62 17.58 34.87 17.37L34.87 17.37L34.87 17.37Q35.13 17.17 35.42 16.84L35.42 16.84L35.42 16.84Q35.70 16.52 35.98 16.12L35.98 16.12L35.98 16.12Q36.26 15.73 36.44 15.36L36.44 15.36L36.44 15.36Q36.00 15.68 35.63 15.97L35.63 15.97L35.63 15.97Q35.26 16.25 35.00 16.52L35.00 16.52L35.00 16.52Q34.73 16.78 34.59 17.03L34.59 17.03L34.59 17.03Q34.44 17.28 34.44 17.53L34.44 17.53L34.44 17.53Q34.44 17.58 34.48 17.58Z"></path></g><!----><!----><g data-v-423bf9ae="" id="1e96c540-8bb1-4898-b849-30bbd9f30bd6" fill="#ffffff" transform="matrix(5.644403079677477,0,0,5.644403079677477,-2.0319555865542043,100.88334090845109)"><path d="M4.40 6.98L3.04 10.75L5.72 10.75L4.40 6.98ZM3.08 14.40L0.36 14.40L0.39 14.11L1.36 13.90L4.35 5.82L4.72 5.73L7.55 13.95L8.46 14.08L8.40 14.39L5.61 14.39L5.67 14.10L6.80 13.90L5.85 11.13L2.90 11.13L1.89 13.95L3.14 14.08L3.08 14.40ZM16.17 10.25L16.17 10.25L16.17 10.25Q16.17 9.73 16.28 9.21L16.28 9.21L16.28 9.21Q16.39 8.68 16.59 8.17L16.59 8.17L16.59 8.17Q16.79 7.66 17.12 7.22L17.12 7.22L17.12 7.22Q17.45 6.77 17.86 6.44L17.86 6.44L17.86 6.44Q18.27 6.10 18.83 5.90L18.83 5.90L18.83 5.90Q19.39 5.71 20.02 5.71L20.02 5.71L20.02 5.71Q21.44 5.71 22.35 6.39L22.35 6.39L22.13 8.70L21.81 8.64L21.61 6.87L21.61 6.87Q21.01 6.09 19.70 6.09L19.70 6.09L19.70 6.09Q18.55 6.09 17.73 7.19L17.73 7.19L17.73 7.19Q16.90 8.30 16.90 10.00L16.90 10.00L16.90 10.00Q16.90 11.92 17.70 12.97L17.70 12.97L17.70 12.97Q18.50 14.03 19.98 14.03L19.98 14.03L19.98 14.03Q20.71 14.03 21.40 13.65L21.40 13.65L21.40 13.65Q22.09 13.28 22.57 12.74L22.57 12.74L22.72 12.99L22.72 12.99Q22.55 13.25 22.26 13.51L22.26 13.51L22.26 13.51Q21.98 13.77 21.59 14.02L21.59 14.02L21.59 14.02Q21.21 14.27 20.70 14.42L20.70 14.42L20.70 14.42Q20.19 14.57 19.67 14.57L19.67 14.57L19.67 14.57Q18.09 14.57 17.13 13.40L17.13 13.40L17.13 13.40Q16.17 12.22 16.17 10.25ZM30.43 10.25L30.43 10.25L30.43 10.25Q30.43 9.73 30.53 9.21L30.53 9.21L30.53 9.21Q30.64 8.68 30.84 8.17L30.84 8.17L30.84 8.17Q31.04 7.66 31.37 7.22L31.37 7.22L31.37 7.22Q31.70 6.77 32.11 6.44L32.11 6.44L32.11 6.44Q32.53 6.10 33.08 5.90L33.08 5.90L33.08 5.90Q33.64 5.71 34.28 5.71L34.28 5.71L34.28 5.71Q35.69 5.71 36.60 6.39L36.60 6.39L36.39 8.70L36.07 8.64L35.86 6.87L35.86 6.87Q35.27 6.09 33.95 6.09L33.95 6.09L33.95 6.09Q32.81 6.09 31.98 7.19L31.98 7.19L31.98 7.19Q31.15 8.30 31.15 10.00L31.15 10.00L31.15 10.00Q31.15 11.92 31.95 12.97L31.95 12.97L31.95 12.97Q32.76 14.03 34.23 14.03L34.23 14.03L34.23 14.03Q34.97 14.03 35.66 13.65L35.66 13.65L35.66 13.65Q36.35 13.28 36.82 12.74L36.82 12.74L36.98 12.99L36.98 12.99Q36.80 13.25 36.52 13.51L36.52 13.51L36.52 13.51Q36.23 13.77 35.84 14.02L35.84 14.02L35.84 14.02Q35.46 14.27 34.95 14.42L34.95 14.42L34.95 14.42Q34.45 14.57 33.92 14.57L33.92 14.57L33.92 14.57Q32.35 14.57 31.39 13.40L31.39 13.40L31.39 13.40Q30.43 12.22 30.43 10.25ZM45.43 9.75L45.43 9.75L45.43 9.75Q45.43 11.03 45.79 12.01L45.79 12.01L45.79 12.01Q46.16 13.00 46.87 13.57L46.87 13.57L46.87 13.57Q47.59 14.14 48.57 14.14L48.57 14.14L48.57 14.14Q49.14 14.14 49.64 13.92L49.64 13.92L49.64 13.92Q50.13 13.70 50.47 13.33L50.47 13.33L50.47 13.33Q50.82 12.96 51.06 12.49L51.06 12.49L51.06 12.49Q51.30 12.01 51.42 11.50L51.42 11.50L51.42 11.50Q51.54 10.99 51.54 10.48L51.54 10.48L51.54 10.48Q51.54 8.50 50.69 7.29L50.69 7.29L50.69 7.29Q49.83 6.07 48.38 6.07L48.38 6.07L48.38 6.07Q47.80 6.07 47.31 6.28L47.31 6.28L47.31 6.28Q46.82 6.49 46.48 6.85L46.48 6.85L46.48 6.85Q46.14 7.21 45.90 7.69L45.90 7.69L45.90 7.69Q45.66 8.16 45.54 8.69L45.54 8.69L45.54 8.69Q45.43 9.21 45.43 9.75ZM44.68 10.16L44.68 10.16L44.68 10.16Q44.68 8.16 45.78 6.92L45.78 6.92L45.78 6.92Q46.87 5.69 48.71 5.69L48.71 5.69L48.71 5.69Q49.85 5.69 50.66 6.27L50.66 6.27L50.66 6.27Q51.48 6.86 51.88 7.84L51.88 7.84L51.88 7.84Q52.27 8.83 52.27 10.11L52.27 10.11L52.27 10.11Q52.27 10.75 52.12 11.38L52.12 11.38L52.12 11.38Q51.97 12.00 51.65 12.58L51.65 12.58L51.65 12.58Q51.32 13.17 50.86 13.61L50.86 13.61L50.86 13.61Q50.40 14.05 49.72 14.32L49.72 14.32L49.72 14.32Q49.05 14.58 48.24 14.58L48.24 14.58L48.24 14.58Q47.19 14.58 46.36 13.98L46.36 13.98L46.36 13.98Q45.54 13.37 45.11 12.37L45.11 12.37L45.11 12.37Q44.68 11.37 44.68 10.16ZM62.80 14.40L59.97 14.40L60.01 14.17L61.15 13.96L61.71 6.36L60.46 6.14L60.50 5.89L62.69 5.89L63.17 7.18L65.32 12.84L67.76 6.88L68.18 5.89L70.41 5.89L70.38 6.14L69.20 6.34L69.58 14.01L70.81 14.12L70.79 14.40L67.63 14.40L67.68 14.17L68.84 13.96L68.46 6.41L65.28 13.99L64.93 14.05L62.15 6.53L61.61 14.01L62.84 14.12L62.80 14.40ZM81.92 14.40L78.50 14.40L78.54 14.11L79.62 13.90L79.62 6.51L78.51 6.36L78.57 6.12L78.57 6.12Q78.74 6.09 79.19 6.02L79.19 6.02L79.19 6.02Q79.64 5.94 79.87 5.91L79.87 5.91L79.87 5.91Q80.10 5.88 80.51 5.84L80.51 5.84L80.51 5.84Q80.92 5.81 81.33 5.81L81.33 5.81L81.33 5.81Q82.02 5.81 82.61 5.96L82.61 5.96L82.61 5.96Q83.20 6.10 83.66 6.40L83.66 6.40L83.66 6.40Q84.12 6.69 84.38 7.18L84.38 7.18L84.38 7.18Q84.64 7.66 84.64 8.29L84.64 8.29L84.64 8.29Q84.64 8.90 84.36 9.43L84.36 9.43L84.36 9.43Q84.08 9.97 83.62 10.33L83.62 10.33L83.62 10.33Q83.16 10.69 82.56 10.90L82.56 10.90L82.56 10.90Q81.96 11.10 81.32 11.10L81.32 11.10L81.32 11.10Q81.05 11.10 80.98 11.09L80.98 11.09L80.91 10.80L81.28 10.78L81.28 10.78Q81.94 10.75 82.44 10.55L82.44 10.55L82.44 10.55Q82.93 10.36 83.22 10.03L83.22 10.03L83.22 10.03Q83.51 9.70 83.65 9.30L83.65 9.30L83.65 9.30Q83.79 8.90 83.79 8.43L83.79 8.43L83.79 8.43Q83.79 7.98 83.63 7.57L83.63 7.57L83.63 7.57Q83.46 7.16 83.14 6.83L83.14 6.83L83.14 6.83Q82.82 6.50 82.29 6.31L82.29 6.31L82.29 6.31Q81.77 6.11 81.12 6.11L81.12 6.11L80.37 6.15L80.37 13.95L81.97 14.08L81.92 14.40ZM96.39 6.98L95.03 10.75L97.71 10.75L96.39 6.98ZM95.07 14.40L92.35 14.40L92.38 14.11L93.35 13.90L96.35 5.82L96.71 5.73L99.54 13.95L100.45 14.08L100.39 14.39L97.60 14.39L97.66 14.10L98.79 13.90L97.84 11.13L94.89 11.13L93.88 13.95L95.14 14.08L95.07 14.40ZM109.38 6.36L108.12 6.14L108.17 5.89L110.24 5.89L114.97 13.17L114.97 6.33L113.72 6.16L113.76 5.89L116.66 5.89L116.60 6.16L115.47 6.32L115.47 14.44L115.10 14.52L109.89 6.65L109.89 13.95L111.15 14.08L111.08 14.40L108.20 14.40L108.24 14.11L109.38 13.90L109.38 6.36ZM125.28 6.35L124.33 6.15L124.35 5.90L127.20 5.90L127.18 6.15L126.04 6.32L128.18 10.49L130.30 6.34L129.04 6.14L129.05 5.89L131.71 5.89L131.69 6.14L130.81 6.32L128.43 11.05L128.43 13.94L129.66 14.08L129.61 14.40L126.46 14.40L126.51 14.11L127.70 13.90L127.70 11.05L125.28 6.35ZM139.53 16.32L139.45 16.01L139.45 16.01Q140.14 15.74 140.40 15.40L140.40 15.40L140.40 15.40Q140.66 15.06 140.66 14.60L140.66 14.60L140.66 14.60Q140.66 14.16 140.45 13.90L140.45 13.90L140.45 13.90Q140.23 13.63 139.92 13.63L139.92 13.63L139.92 13.63Q139.79 13.63 139.73 13.66L139.73 13.66L139.73 13.66Q139.71 13.60 139.71 13.53L139.71 13.53L139.71 13.53Q139.71 13.25 139.89 13.08L139.89 13.08L139.89 13.08Q140.08 12.91 140.37 12.91L140.37 12.91L140.37 12.91Q140.78 12.91 141.06 13.28L141.06 13.28L141.06 13.28Q141.35 13.66 141.35 14.33L141.35 14.33L141.35 14.33Q141.35 14.59 141.26 14.85L141.26 14.85L141.26 14.85Q141.17 15.11 140.98 15.39L140.98 15.39L140.98 15.39Q140.79 15.67 140.41 15.91L140.41 15.91L140.41 15.91Q140.04 16.15 139.53 16.32L139.53 16.32ZM150.32 6.36L149.11 6.18L149.16 5.89L155.35 5.89L155.13 8.09L154.79 8.04L154.65 6.24L151.03 6.24L151.03 10.07L153.30 10.07L153.57 9.11L153.95 9.06L153.74 11.72L153.36 11.77L153.24 10.43L151.03 10.43L151.03 13.92L152.71 14.03L152.63 14.40L149.14 14.40L149.16 14.11L150.32 13.90L150.32 6.36ZM167.13 6.98L165.76 10.75L168.44 10.75L167.13 6.98ZM165.81 14.40L163.08 14.40L163.11 14.11L164.08 13.90L167.08 5.82L167.44 5.73L170.28 13.95L171.18 14.08L171.12 14.39L168.33 14.39L168.39 14.10L169.52 13.90L168.57 11.13L165.62 11.13L164.61 13.95L165.87 14.08L165.81 14.40ZM181.67 14.40L178.84 14.40L178.88 14.17L180.02 13.96L180.58 6.36L179.33 6.14L179.38 5.89L181.56 5.89L182.04 7.18L184.19 12.84L186.63 6.88L187.05 5.89L189.28 5.89L189.25 6.14L188.07 6.34L188.45 14.01L189.68 14.12L189.66 14.40L186.50 14.40L186.55 14.17L187.71 13.96L187.33 6.41L184.15 13.99L183.80 14.05L181.02 6.53L180.48 14.01L181.71 14.12L181.67 14.40ZM198.54 6.33L197.35 6.16L197.39 5.89L200.52 5.89L200.47 6.16L199.27 6.32L199.27 13.95L200.59 14.08L200.53 14.40L197.42 14.40L197.46 14.11L198.54 13.90L198.54 6.33ZM214.47 14.40L208.32 14.40L208.35 14.11L209.51 13.90L209.51 6.34L208.33 6.17L208.36 5.90L211.47 5.90L211.44 6.17L210.24 6.32L210.24 14.03L213.86 14.03L214.39 12.09L214.69 12.14L214.47 14.40ZM223.34 6.35L222.39 6.15L222.42 5.90L225.27 5.90L225.24 6.15L224.11 6.32L226.25 10.49L228.37 6.34L227.10 6.14L227.12 5.89L229.78 5.89L229.76 6.14L228.88 6.32L226.50 11.05L226.50 13.94L227.73 14.08L227.68 14.40L224.53 14.40L224.57 14.11L225.77 13.90L225.77 11.05L223.34 6.35ZM237.60 16.32L237.51 16.01L237.51 16.01Q238.21 15.74 238.47 15.40L238.47 15.40L238.47 15.40Q238.73 15.06 238.73 14.60L238.73 14.60L238.73 14.60Q238.73 14.16 238.52 13.90L238.52 13.90L238.52 13.90Q238.30 13.63 237.99 13.63L237.99 13.63L237.99 13.63Q237.86 13.63 237.80 13.66L237.80 13.66L237.80 13.66Q237.78 13.60 237.78 13.53L237.78 13.53L237.78 13.53Q237.78 13.25 237.96 13.08L237.96 13.08L237.96 13.08Q238.14 12.91 238.44 12.91L238.44 12.91L238.44 12.91Q238.85 12.91 239.13 13.28L239.13 13.28L239.13 13.28Q239.42 13.66 239.42 14.33L239.42 14.33L239.42 14.33Q239.42 14.59 239.33 14.85L239.33 14.85L239.33 14.85Q239.24 15.11 239.05 15.39L239.05 15.39L239.05 15.39Q238.85 15.67 238.48 15.91L238.48 15.91L238.48 15.91Q238.11 16.15 237.60 16.32L237.60 16.32ZM253.35 14.40L247.19 14.40L247.23 14.11L248.38 13.90L248.38 6.34L247.21 6.17L247.24 5.90L250.35 5.90L250.32 6.17L249.12 6.32L249.12 14.03L252.74 14.03L253.26 12.09L253.57 12.14L253.35 14.40ZM262.45 6.33L261.26 6.16L261.30 5.89L264.43 5.89L264.38 6.16L263.18 6.32L263.18 13.95L264.50 14.08L264.44 14.40L261.33 14.40L261.37 14.11L262.45 13.90L262.45 6.33ZM273.42 6.36L272.21 6.18L272.26 5.89L278.46 5.89L278.23 8.09L277.89 8.04L277.75 6.24L274.13 6.24L274.13 10.07L276.40 10.07L276.67 9.11L277.05 9.06L276.84 11.72L276.47 11.77L276.34 10.43L274.13 10.43L274.13 13.92L275.81 14.03L275.73 14.40L272.24 14.40L272.26 14.11L273.42 13.90L273.42 6.36ZM287.39 6.36L286.17 6.18L286.21 5.89L292.41 5.89L292.20 8.07L291.88 8.03L291.75 6.24L288.10 6.24L288.10 9.89L290.39 9.89L290.64 8.94L291.01 8.89L290.79 11.55L290.44 11.61L290.33 10.26L288.10 10.26L288.10 14.03L291.94 14.03L292.45 12.19L292.73 12.26L292.52 14.40L286.19 14.40L286.23 14.11L287.39 13.90L287.39 6.36Z"></path></g></svg>